<svg xmlns="http://www.w3.org/2000/svg" width="9.896" height="13.797" viewBox="0 0 9.896 13.797">
  <path id="salary" d="M8.525-11.417H6.451a3.579,3.579,0,0,1,.712,1.74H8.93l-.4,1.38H7.189A3.139,3.139,0,0,1,5.95-5.948a5.018,5.018,0,0,1-3.006.789L7.277-.106V0h-2L.624-5.447.615-6.539H2.8a3.139,3.139,0,0,0,1.784-.479A2.054,2.054,0,0,0,5.458-8.3H.369l.4-1.38H5.44q-.422-1.67-2.584-1.74H.387L.8-12.8H8.93Z" transform="translate(0.299 13.297)" fill="#ff8a66" stroke="rgba(0,0,0,0)" stroke-width="1"/>
</svg>
