<svg xmlns="http://www.w3.org/2000/svg" width="23" height="20" viewBox="0 0 23 20">
  <g id="search_job" transform="translate(-4 -2)">
    <g id="Rectangle_18544" data-name="Rectangle 18544" transform="translate(4 5)" fill="none" stroke="#ff8a66" stroke-width="1.3">
      <rect width="23" height="17" rx="3" stroke="none"/>
      <rect x="0.65" y="0.65" width="21.7" height="15.7" rx="2.35" fill="none"/>
    </g>
    <path id="Subtraction_5" data-name="Subtraction 5" d="M9.756,2.278a1.342,1.342,0,0,1-.389-.391,1.389,1.389,0,0,0,.39.39Zm2.495,0v0a1.367,1.367,0,0,0,.418-.444A1.329,1.329,0,0,1,12.251,2.273ZM22,1.3H12.843c0-.051.007-.1.007-.151v-1A1.372,1.372,0,0,0,12.842,0H22V1.3ZM9.159,1.3H0V0H9.157c0,.05-.007.1-.007.149v1a1.366,1.366,0,0,0,.008.151Z" transform="translate(4.591 10.85)" fill="#ff8a66"/>
    <g id="Rectangle_18545" data-name="Rectangle 18545" transform="translate(11 2)" fill="none" stroke="#ff8a66" stroke-width="1.3">
      <path d="M2,0H7A2,2,0,0,1,9,2V4A0,0,0,0,1,9,4H0A0,0,0,0,1,0,4V2A2,2,0,0,1,2,0Z" stroke="none"/>
      <path d="M2,.65H7A1.35,1.35,0,0,1,8.35,2V3.35a0,0,0,0,1,0,0H.65a0,0,0,0,1,0,0V2A1.35,1.35,0,0,1,2,.65Z" fill="none"/>
    </g>
    <g id="Rectangle_18548" data-name="Rectangle 18548" transform="translate(13 9)" fill="none" stroke="#ff8a66" stroke-width="1.3">
      <rect width="5" height="5" rx="2" stroke="none"/>
      <rect x="0.65" y="0.65" width="3.7" height="3.7" rx="1.35" fill="none"/>
    </g>
  </g>
</svg>
