<svg xmlns="http://www.w3.org/2000/svg" width="10.1" height="14.477" viewBox="0 0 10.1 14.477">
  <path id="trending" d="M9.55,15.977a5.05,5.05,0,0,0,5.05-5.05,5.07,5.07,0,0,0-.337-1.663Q12.58,10.927,11.7,10.927c2.69-4.713,1.212-6.733-2.828-9.427.337,3.367-1.883,4.9-2.786,5.748a5.05,5.05,0,0,0,3.46,8.729Zm.478-11.962c2.182,1.852,2.193,3.291.507,6.245a1.347,1.347,0,0,0,1.17,2.014,3,3,0,0,0,1.427-.4A3.7,3.7,0,1,1,7.013,8.229c.085-.079.515-.461.534-.478.285-.256.52-.483.753-.731a7.055,7.055,0,0,0,1.728-3Z" transform="translate(-4.5 -1.5)" fill="#f24141"/>
</svg>
